HIERARCHY
ROOT Hips
{
	OFFSET 0.00000 0.00000 0.00000
	CHANNELS 6 Xposition Yposition Zposition Zrotation Yrotation Xrotation 
	JOINT LHipJoint
	{
		OFFSET 0 0 0
		CHANNELS 3 Zrotation Yrotation Xrotation
		JOINT LeftHip
		{
			OFFSET 1.36337 -1.57426 1.11036
			CHANNELS 3 Zrotation Yrotation Xrotation
			JOINT LeftKnee
			{
				OFFSET 2.38468 -6.55187 0.00000
				CHANNELS 3 Zrotation Yrotation Xrotation
				JOINT LeftAnkle
				{
					OFFSET 2.37166 -6.51609 0.00000
					CHANNELS 3 Zrotation Yrotation Xrotation
					JOINT LeftToe
					{
						OFFSET 0.29078 -0.79891 2.01393
						CHANNELS 3 Zrotation Yrotation Xrotation
						End Site
						{
							OFFSET 0.00000 -0.00000 1.07924
						}
					}
				}
			}
		}
	}
	JOINT RHipJoint
	{
		OFFSET 0 0 0
		CHANNELS 3 Zrotation Yrotation Xrotation
		JOINT RightHip
		{
			OFFSET -1.36349 -1.57426 1.11036
			CHANNELS 3 Zrotation Yrotation Xrotation
			JOINT RightKnee
			{
				OFFSET -2.29562 -6.30717 0.00000
				CHANNELS 3 Zrotation Yrotation Xrotation
				JOINT RightAnkle
				{
					OFFSET -2.40985 -6.62100 0.00000
					CHANNELS 3 Zrotation Yrotation Xrotation
					JOINT RightToe
					{
						OFFSET -0.23197 -0.63733 1.92232
						CHANNELS 3 Zrotation Yrotation Xrotation
						End Site
						{
							OFFSET -0.00000 -0.00000 1.01562
						}
					}
				}
			}
		}
	}
	JOINT lowerback
	{
		OFFSET 0 0 0
		CHANNELS 3 Zrotation Yrotation Xrotation
		JOINT Chest
		{
			OFFSET -0.08565 2.03602 -0.24562
			CHANNELS 3 Zrotation Yrotation Xrotation
			JOINT Chest2
			{
				OFFSET -0.00036 2.05693 0.00216
				CHANNELS 3 Zrotation Yrotation Xrotation
				JOINT lowerneck
				{
					OFFSET 0 0 0
					CHANNELS 3 Zrotation Yrotation Xrotation
					JOINT Neck
					{
						OFFSET -0.03664 1.69515 0.31789
						CHANNELS 3 Zrotation Yrotation Xrotation
						JOINT Head
						{
							OFFSET 0.00932 1.70181 -0.46013
							CHANNELS 3 Zrotation Yrotation Xrotation
							End Site
							{
								OFFSET 0.01243 1.77620 -0.19377
							}
						}
					}
				}
				JOINT LeftCollar
				{
					OFFSET 0 0 0
					CHANNELS 3 Zrotation Yrotation Xrotation
					JOINT LeftShoulder
					{
						OFFSET 3.74344 0.81315 -0.36647
CHANNELS 3 Zrotation Xrotation Yrotation
						JOINT LeftElbow
						{
OFFSET 0 -4.971850 -0.000000
CHANNELS 3 Zrotation Xrotation Yrotation
							JOINT LeftWrist
							{
OFFSET 0 -3.358110 0.000000
CHANNELS 3 Zrotation Xrotation Yrotation
								JOINT lhand
								{
									OFFSET 0 0 0
CHANNELS 3 Zrotation Xrotation Yrotation
									JOINT LFingers
									{
OFFSET 0 -0.622780 0.000000
CHANNELS 3 Zrotation Xrotation Yrotation
										End Site
										{
OFFSET 0 -0.502100 0.000000
										}
									}
								}
								JOINT LThumb
								{
OFFSET 0 0.000000 0.000000
CHANNELS 3 Zrotation Xrotation Yrotation
									End Site
									{
OFFSET 0 -0.509760 0.509760
									}
								}
							}
						}
					}
				}
				JOINT RightCollar
				{
					OFFSET 0 0 0
					CHANNELS 3 Zrotation Yrotation Xrotation
					JOINT RightShoulder
					{
						OFFSET -3.75385 0.50666 -0.06525
CHANNELS 3 Zrotation Xrotation Yrotation
						JOINT RightElbow
						{
OFFSET 0 -4.964930 -0.000000
CHANNELS 3 Zrotation Xrotation Yrotation
							JOINT RightWrist
							{
OFFSET 0 -3.349290 0.000000
CHANNELS 3 Zrotation Xrotation Yrotation
								JOINT rhand
								{
									OFFSET 0 0 0
CHANNELS 3 Zrotation Xrotation Yrotation
									JOINT RFingers
									{
OFFSET 0 -0.638040 0.000000
CHANNELS 3 Zrotation Xrotation Yrotation
										End Site
										{
OFFSET 0 -0.514410 0.000000
										}
									}
								}
								JOINT RThumb
								{
OFFSET 0 0.000000 0.000000
CHANNELS 3 Zrotation Xrotation Yrotation
									End Site
									{
OFFSET 0 -0.522260 0.522260
									}
								}
							}
						}
					}
				}
			}
		}
	}
}
MOTION
Frames: 6
Frame Time: 0.008333333333333333
4.906688 15.442435 -6.758892 -174.211987 175.163928 -168.662124 0.000000 0.000000 0.000000 -29.802388 21.513471 -30.516379 10.434673 17.647162 60.931627 3.283727 1.483379 -34.873884 1.122785 -6.730451 -18.919347 0.000000 0.000000 0.000000 19.575501 -4.120186 -55.546246 -10.764445 -17.817747 62.014057 -1.302719 -5.774263 -24.343815 -0.822746 -5.787235 16.168458 -1.246471 -2.461052 34.501697 4.044649 -2.956432 6.977391 6.102025 -1.331447 -9.560415 -6.167454 -6.353922 -28.505957 6.996276 -8.552443 25.334106 2.096732 -3.276090 13.978912 0.000000 0.000000 0.000000 13.303712 -17.845017 -40.344378 44.671981 -50.605493 21.985322 31.573646 -37.959497 15.903664 0.000000 0.000000 0.000000 -7.125000 0.000000 0.000000 2.556874 11.502060 1.998049 0.000000 0.000000 0.000000 -8.846086 -14.292406 14.070811 -36.252639 -45.686177 -15.702978 -21.097930 -15.741644 26.897871 0.000000 0.000000 0.000000 7.125000 0.000000 0.000000 10.189890 58.223245 -3.318745
5.024347 15.409705 -6.376473 -173.849861 179.615212 -170.910873 0.000000 0.000000 0.000000 -27.793099 20.797192 -28.776179 12.438651 18.565502 67.367870 2.113032 3.055692 -28.673329 0.827270 -5.794778 -16.192346 0.000000 0.000000 0.000000 19.236697 -5.101029 -50.805304 -10.320368 -17.585894 60.553534 -1.890456 -2.362361 -26.916087 -0.530292 -4.665381 12.956819 -0.147379 -2.641074 34.804438 3.494351 -2.906804 7.409822 4.896597 -1.353390 -9.254870 -5.544304 -4.440534 -29.382278 3.990786 -5.128643 26.847938 1.496163 -2.170109 14.383396 0.000000 0.000000 0.000000 14.234465 -18.177234 -41.283869 41.587077 -48.980176 19.629160 30.862246 -37.051252 16.848122 0.000000 0.000000 0.000000 -7.125000 0.000000 0.000000 1.971522 10.556735 1.577685 0.000000 0.000000 0.000000 -8.841929 -13.254124 12.959300 -35.879741 -45.429876 -15.436860 -20.421008 -15.476488 27.133837 0.000000 0.000000 0.000000 7.125000 0.000000 0.000000 11.045908 58.309248 -3.624959
5.077599 15.420190 -6.078481 -175.187214 182.964579 -172.256898 0.000000 0.000000 0.000000 -22.700842 15.416629 -31.884385 16.583322 19.714270 79.963154 0.460648 5.989020 -16.389676 1.430384 -7.558982 -21.383950 0.000000 0.000000 0.000000 20.600422 -3.520582 -46.588893 -9.786446 -17.287924 58.772076 -2.229331 -2.746073 -29.302260 -0.423420 -4.174375 11.567981 1.894724 -2.673852 35.542759 3.221098 -2.272996 7.442430 3.308462 -1.102008 -9.530918 -5.155581 -2.931680 -29.885908 1.564448 -2.295480 27.361452 1.023940 -1.298141 14.497357 0.000000 0.000000 0.000000 13.793901 -18.644069 -40.887618 40.154662 -48.161260 18.554373 31.965458 -37.007437 16.521239 0.000000 0.000000 0.000000 -7.125000 0.000000 0.000000 2.734580 10.725663 2.180370 0.000000 0.000000 0.000000 -9.567489 -12.192516 12.976201 -34.999158 -44.811463 -14.812768 -19.810373 -15.663509 27.344376 0.000000 0.000000 0.000000 7.125000 0.000000 0.000000 11.819036 58.383059 -3.904996
5.065070 15.402016 -5.839443 -175.545219 184.688674 -173.636876 0.000000 0.000000 0.000000 -18.662579 5.526289 -37.132909 18.913321 19.971627 86.821277 0.746812 2.713603 -17.520120 1.392380 -7.464435 -21.099300 0.000000 0.000000 0.000000 20.876415 -1.998567 -42.927833 -9.505740 -17.122263 57.822999 -2.416436 -3.650250 -30.843401 -0.413770 -4.128907 11.439544 2.313686 -2.532854 36.916147 2.579487 -1.995752 7.802618 2.330158 -0.984731 -9.595531 -4.545729 -1.914924 -30.289937 0.437972 -0.714337 27.216548 0.784756 -0.734898 14.442436 0.000000 0.000000 0.000000 12.956194 -18.865633 -39.454280 39.029100 -47.483525 17.720331 32.240416 -37.037970 16.703789 0.000000 0.000000 0.000000 -7.125000 0.000000 0.000000 2.889878 10.465437 2.319500 0.000000 0.000000 0.000000 -9.837580 -12.219362 13.430330 -34.018758 -44.098619 -14.126171 -19.661454 -15.210528 26.498811 0.000000 0.000000 0.000000 7.125000 0.000000 0.000000 11.522418 57.504836 -3.559558
5.067016 15.445402 -5.581208 -176.196848 186.027673 -174.530312 0.000000 0.000000 0.000000 -15.243822 -1.777387 -44.143394 17.063261 19.788390 81.383447 1.159528 2.634680 -21.458011 1.321533 -7.264781 -20.509265 0.000000 0.000000 0.000000 21.588073 -1.899896 -40.017927 -9.247934 -16.964640 56.943744 -2.679340 -2.343769 -31.855535 -0.607865 -4.983632 13.863253 2.898165 -2.250851 37.978303 1.966171 -1.491448 8.329666 1.183308 -0.761657 -9.401181 -4.321499 -1.499242 -30.711051 -0.018100 -0.038985 27.506586 0.699694 -0.500971 14.635431 0.000000 0.000000 0.000000 12.764036 -18.052116 -39.448262 37.912652 -46.783128 16.901975 31.161665 -36.895650 16.114612 0.000000 0.000000 0.000000 -7.125000 0.000000 0.000000 2.259508 11.334779 1.772770 0.000000 0.000000 0.000000 -10.204852 -12.149666 13.803258 -33.858323 -43.979411 -14.014649 -20.758738 -13.930693 26.399805 0.000000 0.000000 0.000000 7.125000 0.000000 0.000000 10.301335 57.644399 -3.212116
5.084123 15.515651 -5.260049 -175.386119 188.053312 -175.668165 0.000000 0.000000 0.000000 -14.874911 -4.609059 -48.280673 12.075344 18.412802 66.217081 1.150194 1.039011 -20.662796 1.409788 -7.483562 -21.168502 0.000000 0.000000 0.000000 20.327313 -1.877814 -37.021842 -8.990786 -16.801677 56.058036 -2.521269 -1.091317 -30.463019 -0.597922 -4.945454 13.753999 1.677457 -1.467982 39.071154 1.086435 -1.096555 8.690978 0.735068 -0.563131 -9.370885 -4.074302 -0.982236 -30.600177 -0.733387 0.830413 27.736344 0.544786 -0.223378 14.701555 0.000000 0.000000 0.000000 11.850284 -16.832801 -38.578410 36.417992 -45.798512 15.821415 31.140744 -34.587436 16.517324 0.000000 0.000000 0.000000 -7.125000 0.000000 0.000000 2.195311 10.881089 1.742803 0.000000 0.000000 0.000000 -10.375357 -12.127089 14.373815 -34.055737 -44.125876 -14.151866 -19.959784 -14.771669 26.131594 0.000000 0.000000 0.000000 7.125000 0.000000 0.000000 11.019552 57.200041 -3.322637
